<?xml version="1.0" encoding="UTF-8"?>
<svg id="Layer_1" data-name="Layer 1" xmlns="http://www.w3.org/2000/svg" viewBox="0 0 1920 1080">
  <g>
    <rect x="47.5" y="206.05" width="1741.69" height="199.23" rx="70.74" ry="70.74" style="fill: #fff;"/>
    <path d="M1718.45,208.55c37.63,0,68.24,30.61,68.24,68.24v57.75c0,37.63-30.61,68.24-68.24,68.24H118.24c-37.63,0-68.24-30.61-68.24-68.24v-57.75c0-37.63,30.61-68.24,68.24-68.24h1600.21M1718.45,203.55H118.24c-40.45,0-73.24,32.79-73.24,73.24v57.75c0,40.45,32.79,73.24,73.24,73.24h1600.21c40.45,0,73.24-32.79,73.24-73.24v-57.75c0-40.45-32.79-73.24-73.24-73.24h0Z"/>
  </g>
  <polyline points="1478.25 400.98 1441.63 640.42 1700.79 400.98" style="fill: #fff; stroke: #000; stroke-miterlimit: 10; stroke-width: 5px;"/>
</svg>