<?xml version="1.0" encoding="UTF-8"?>
<svg xmlns="http://www.w3.org/2000/svg" viewBox="0 0 206.69 180.66">
  <g id="Layer_2" data-name="Layer 2">
    <rect x="3" y="3" width="171.47" height="174.66" rx="18.7" ry="18.7" style="fill: #ffe7d4; stroke: #c7b299; stroke-miterlimit: 10; stroke-width: 6px;"/>
  </g>
  <g id="Layer_5" data-name="Layer 5">
    <path d="M66.14,58.34h0c.36.85,1.31,1.3,2.2,1.04l11.56-3.41c.4-.12.74-.36.98-.7l4.17-5.93c.3-.42.4-.96.28-1.46l-.42-1.79c-.24-1.04-1.32-1.65-2.34-1.32l-.58.19c-.81.26-1.33,1.05-1.26,1.9l.19,2.07c.06.65-.24,1.29-.77,1.66l-4.35,3.03c-.18.13-.38.22-.6.27l-7.83,1.98c-1.08.27-1.67,1.45-1.23,2.48Z" style="fill: #946f00;"/>
  </g>
  <g id="Layer_3" data-name="Layer 3">
    <path d="M28.71,115.11c-.67,16.21,10.14,30.68,25.69,35.27,10.37,3.06,23.43,5.44,38.39,4.88,17.43-.66,43.86-1.43,53.14-18.51,10.65-19.6-3.1-53.17-28.34-66.75-21.4-11.51-46.34-6.73-62.68,4.03-5.39,3.55-9.97,7.58-9.97,7.58-3.45,3.29-5.69,6.25-6.6,7.51-2.83,3.9-8.59,12.05-9.54,24.44-.03.41-.07.95-.09,1.55Z" style="fill: #754c24;"/>
    <path d="M205.24,28.26c1.93,0,1.93-3,0-3s-1.93,3,0,3h0Z" style="fill: #754c24;"/>
  </g>
  <g id="Layer_7" data-name="Layer 7">
    <path d="M46.39,102.45c2.59,7.47,3.18,8.65,4.71,11.39,1.26,2.27,2.38,3.88,3.57,5.6,1.99,2.86,4.59,6.63,7.79,9.72,2.99,2.9,5.91,4.44,11.74,7.53,2.55,1.35,9.3,4.79,18.89,7.76,0,0,3.33,1.03,6.26,1.74,13.57,3.32,31.79.69,38.32-.39-1.37.79-3.58,2.01-6.41,3.24-11.13,4.86-21.09,5.38-41.75,5.33-15.87-.03-23.81-.05-25.84-.53-6.65-1.55-24.95-5.81-32.54-21.97-6.45-13.74-1.19-27.61,0-30.73,3.14-8.27,8.15-13.74,11.26-16.65-.09.8-.2,1.99-.17,3.43.08,5.04,1.62,7.12,4.18,14.51Z" style="fill: #603813;"/>
  </g>
  <g id="Layer_8" data-name="Layer 8">
    <path d="M27.3,104.63c-.8-10.11,5.66-23.34,14.94-32.68,3.9-3.93,20.18-19.45,45.04-19.87,3.27-.05,9.71-.11,17.52,2.25,32.16,9.73,51.55,49.53,44.94,57.96-.19.24-1.13,1.37-2.57,1.53-6.09.66-9.37-17.39-17.86-28.6-13.37-17.66-44.73-25.07-65.3-15.96-21.89,9.7-31.07,40.25-35.6,38.08-.84-.4-1.02-1.69-1.1-2.71Z" style="fill: #bf9c00;"/>
  </g>
  <g id="Layer_9" data-name="Layer 9">
    <path d="M38.64,78.15l5.88,7.77c-1.97,2.61-3.47,4.81-4.46,6.32-1.82,2.76-2.59,4.17-4.66,7.39-1.71,2.67-3.16,4.79-4.1,6.13-.18.25-.43.56-.78.86-.5.43-1,.68-1.36.82-.09.01-.7.09-1.22-.34-.59-.5-.54-1.23-.53-1.3-.2-1.71-.3-4.05.11-6.79.42-2.75,1.22-4.98,1.92-6.55.58-1.9,1.38-4.05,2.49-6.33,1.6-3.29,3.41-5.94,5.02-7.97.17-.23.35-.46.52-.69l1.17.69Z" style="fill: #aa8100;"/>
  </g>
  <g id="Layer_6" data-name="Layer 6">
    <g>
      <ellipse cx="52.37" cy="161.49" rx="16.98" ry="9.06" style="fill: #ffc62a;"/>
      <ellipse cx="52.37" cy="159.74" rx="16.98" ry="9.06" style="fill: #bf9c00;"/>
    </g>
    <g>
      <ellipse cx="52.37" cy="158.47" rx="16.98" ry="9.06" style="fill: #ffc62a;"/>
      <ellipse cx="52.37" cy="156.72" rx="16.98" ry="9.06" style="fill: #bf9c00;"/>
    </g>
    <g>
      <ellipse cx="52.37" cy="155.26" rx="16.98" ry="9.06" style="fill: #ffc62a;"/>
      <ellipse cx="52.37" cy="153.51" rx="16.98" ry="9.06" style="fill: #bf9c00;"/>
    </g>
    <g>
      <ellipse cx="85.46" cy="163.45" rx="16.98" ry="9.06" style="fill: #ffc62a;"/>
      <ellipse cx="85.46" cy="161.7" rx="16.98" ry="9.06" style="fill: #bf9c00;"/>
    </g>
    <g>
      <ellipse cx="87.78" cy="160.62" rx="16.98" ry="9.06" style="fill: #ffc62a;"/>
      <ellipse cx="87.78" cy="158.87" rx="16.98" ry="9.06" style="fill: #bf9c00;"/>
    </g>
  </g>
  <g id="Layer_4" data-name="Layer 4">
    <path d="M113.24,58.34h0c-.36.85-1.31,1.3-2.2,1.04l-11.56-3.41c-.4-.12-.74-.36-.98-.7l-4.17-5.93c-.3-.42-.4-.96-.28-1.46l.42-1.79c.24-1.04,1.32-1.65,2.34-1.32l.58.19c.81.26,1.33,1.05,1.26,1.9l-.19,2.07c-.06.65.24,1.29.77,1.66l4.35,3.03c.18.13.38.22.6.27l7.83,1.98c1.08.27,1.67,1.45,1.23,2.48Z" style="fill: #aa8100;"/>
  </g>
</svg>